# xmcd
#
# Track frame offsets:
#	150
#	22372
#	40080
#	54622
#	73395
#	92290
#	111115
#	131852
#	158117
#	183400
#	199117
#	218405
#	249835
#	268085
#
# Disc length: 3818 seconds
#
# Revision: 6
# Processed by: cddbd v1.5.2PL0 Copyright (c) Steve Scherf et al.
# Submitted via: EZCDAudioConverter 8.2.2.1
#
DISCID=c90ee80e
DTITLE=LEANDRO and LEONARDO - FOCUS - O ESSENCIAL DE LEANDRO and LEONARDO [CD 7432
DTITLE=170408-2) BMG RCA
DYEAR=1999
DGENRE=Country
TTITLE0=LEANDRO - CATEDRAL (CATEDRAL SONG) (BY GILMAR SINISTRO)
TTITLE1=LEANDRO and LEONARDO - UM SONHADOR (BY GILMAR SINISTRO)
TTITLE2=LEANDRO and LEONARDO - CUMADE E CUMPADE (BY GILMAR SINISTRO)
TTITLE3=LEANDRO and LEONARDO - DEU MEDO (BY GILMAR SINISTRO)
TTITLE4=LEANDRO and LEONARDO - VERDE E AMARELO (INÉDITO) (BY GILMAR SINISTRO)
TTITLE5=LEANDRO and LEONARDO - AMOR DIVIDIDO (BY GILMAR SINISTRO)
TTITLE6=LEANDRO and LEONARDO - ABANDONADO (ABANDONADA) (BY GILMAR SINISTRO)
TTITLE7=LEANDRO and LEONARDO - CANÇÃO DO 3º MILÊNIO (BY GILMAR SINISTRO)
TTITLE8=LEANDRO and LEONARDO - EU JURO (I SWEAR) (AO VIVO) (BY GILMAR SINISTRO)
TTITLE9=LEANDRO and LEONARDO - MEXE-MEXE (AO VIVO) (BY GILMAR SINISTRO)
TTITLE10=LEANDRO and LEONARDO - EU SOU DESEJO, VOCÊ É PAIXÃO (RIGHT HERE WAITING
TTITLE10=) (AO VIVO) (BY GILMAR SINISTRO)
TTITLE11=LEANDRO and LEONARDO - FESTA DE RODEIO (AO VIVO) (BY GILMAR SINISTRO)
TTITLE12=LEANDRO and LEONARDO - HORIZONTE AZUL (AO VIVO) (BY GILMAR SINISTRO)
TTITLE13=LEANDRO and LEONARDO - DOCE MISTÉRIO (AO VIVO) (BY GILMAR SINISTRO)
EXTD=
EXTT0=
EXTT1=
EXTT2=
EXTT3=
EXTT4=
EXTT5=
EXTT6=
EXTT7=
EXTT8=
EXTT9=
EXTT10=
EXTT11=
EXTT12=
EXTT13=
PLAYORDER=
